<svg width="1302" height="360" viewBox="0 0 1302 360" fill="none" xmlns="http://www.w3.org/2000/svg">
<g clip-path="url(#clip0_16_25)">
<path d="M537.775 139.888L529.228 117.7H475.286L466.565 139.884H433.1L486.681 14.4458H520.146L572.482 139.884H537.775V139.888ZM485.079 92.6446H519.612L502.526 47.9096L485.079 92.6446Z" fill="#1A7934"/>
<path d="M657.931 44.781C652.347 41.7437 646.834 40.2209 641.374 40.2209C635.083 40.2209 629.358 41.802 624.197 44.9599C619.031 48.1178 614.966 52.4739 612.007 58.02C609.031 63.562 607.557 69.7405 607.557 76.539C607.557 83.3332 609.035 89.5118 612.007 95.0579C614.966 100.6 619.031 104.956 624.197 108.118C629.362 111.276 635.087 112.857 641.374 112.857C646.474 112.857 651.813 111.542 657.393 108.917C662.968 106.292 667.96 102.713 672.347 98.1825L691.396 118.757C684.636 125.917 676.59 131.613 667.273 135.849C657.96 140.076 648.729 142.202 639.598 142.202C627.255 142.202 616.1 139.339 606.129 133.614C596.166 127.889 588.327 120.076 582.631 110.169C576.936 100.271 574.088 89.1748 574.088 76.8926C574.088 64.7228 576.994 53.7512 582.813 43.9655C588.621 34.1797 596.605 26.4909 606.754 20.8782C616.899 15.2738 628.265 12.4738 640.848 12.4738C650.099 12.4738 659.239 14.4084 668.258 18.282C677.277 22.1638 684.935 27.4395 691.226 34.1214L672.352 57.0257C668.316 51.9123 663.51 47.8265 657.931 44.781Z" fill="#1A7934"/>
<path d="M705.279 14.4501H803.724V40.5746H737.854V64.0197H797.313V89.9695L737.854 90.1442V113.764H805.5V139.889H705.279V14.4501Z" fill="#1A7934"/>
<path d="M825.437 14.4501H858.012V111.975H910.881V139.884H825.441V14.4501H825.437Z" fill="#1A7934"/>
<path d="M925.659 14.4501H1024.1V40.5746H958.234V64.0197H1017.69V89.9695L958.234 90.1442V113.764H1025.88V139.889H925.659V14.4501Z" fill="#1A7934"/>
<path d="M1120.76 139.889L1102.6 105.176H1101.89H1078.39V139.889H1045.82V14.4501H1101.89C1118.39 14.4501 1131.18 18.2986 1140.25 25.9916C1149.33 33.6888 1153.87 44.5105 1153.87 58.4694C1153.87 67.8932 1151.97 76.0397 1148.17 82.9005C1144.37 89.7572 1138.86 95.0995 1131.62 98.9189L1157.61 139.893H1120.76V139.889ZM1078.39 79.052H1102.07C1108.71 79.052 1113.84 77.3836 1117.46 74.0426C1121.08 70.7016 1122.89 65.867 1122.89 59.547C1122.89 53.4642 1121.08 48.7835 1117.46 45.5008C1113.84 42.2222 1108.71 40.5788 1102.07 40.5788H1078.39V79.052Z" fill="#1A7934"/>
<path d="M1266.38 139.888L1257.83 117.7H1203.9L1195.17 139.884H1161.71L1215.29 14.4458H1248.75L1301.09 139.884H1266.38V139.888ZM1213.68 92.6446H1248.22L1231.13 47.9096L1213.68 92.6446Z" fill="#1A7934"/>
<path d="M539.377 209.334C528.925 205.864 520.163 204.125 513.089 204.125C507.497 204.125 503.097 205.157 499.885 207.225C496.677 209.292 495.071 212.313 495.071 216.282C495.071 220.085 496.47 223.264 499.268 225.831C502.062 228.394 505.523 230.462 509.633 232.034C513.743 233.603 519.836 235.633 527.895 238.109C539.898 241.579 549.816 245.053 557.634 248.535C565.445 252.005 572.159 257.339 577.747 264.529C583.343 271.727 586.137 281.117 586.137 292.692C586.137 304.267 583.09 314.144 577.006 322.336C570.913 330.516 562.564 336.682 551.951 340.818C541.343 344.953 529.538 347.021 516.541 347.021C502.228 347.021 487.952 344.496 473.717 339.453C459.487 334.41 447.19 327.508 436.821 318.742L454.342 283.264C463.063 291.036 473.386 297.406 485.319 302.37C497.244 307.333 507.812 309.809 517.029 309.809C523.776 309.809 529.083 308.569 532.949 306.085C536.81 303.609 538.752 299.969 538.752 295.172C538.752 291.202 537.307 287.899 534.43 285.253C531.55 282.598 527.932 280.493 523.573 278.924C519.207 277.356 513.081 275.492 505.183 273.337C493.337 270.029 483.548 266.688 475.816 263.293C468.08 259.91 461.457 254.78 455.948 247.915C450.435 241.05 447.682 231.914 447.682 220.505C447.682 209.758 450.522 200.33 456.196 192.226C461.871 184.121 469.934 177.88 480.381 173.494C490.829 169.117 502.96 166.921 516.781 166.921C529.285 166.921 541.624 168.706 553.802 172.255C565.983 175.812 576.675 180.563 585.888 186.521L568.864 222.74C559.654 217.268 549.824 212.804 539.377 209.334Z" fill="#E4351F"/>
<path d="M609.097 170.383H745.577V206.601H654.259V239.103H736.69V275.076L654.259 275.322V308.07H748.044V344.288H609.097V170.383Z" fill="#E4351F"/>
<path d="M898.207 181.308C912.111 188.581 922.926 198.791 930.658 211.939C938.39 225.095 942.26 240.181 942.26 257.215C942.26 274.252 938.349 289.385 930.542 302.607C922.723 315.842 911.701 326.098 897.47 333.375C883.24 340.648 866.903 344.288 848.479 344.288H775.68V170.383H850.205C868.306 170.383 884.304 174.031 898.207 181.308ZM874.643 301.367C881.386 297.231 886.655 291.361 890.438 283.755C894.221 276.15 896.113 267.471 896.113 257.71C896.113 247.783 894.093 239.024 890.07 231.411C886.034 223.805 880.483 217.893 873.414 213.674C866.332 209.459 858.269 207.354 849.229 207.354H820.842V307.571H851.451C860.16 307.571 867.892 305.503 874.643 301.367Z" fill="#E4351F"/>
<path d="M1016.55 298.892C1022.96 305.503 1031.11 308.81 1040.98 308.81C1050.69 308.81 1058.55 305.553 1064.55 299.008C1070.55 292.484 1073.55 283.68 1073.55 272.592V170.383H1118.72V272.588C1118.72 287.645 1115.55 300.83 1109.21 312.16C1102.88 323.493 1093.83 332.21 1082.07 338.322C1070.3 344.446 1056.53 347.508 1040.73 347.508C1024.94 347.508 1011.07 344.446 999.149 338.322C987.216 332.206 978.002 323.489 971.5 312.16C964.997 300.83 961.76 287.645 961.76 272.588V170.383H1006.92V272.588C1006.92 283.506 1010.13 292.28 1016.55 298.892Z" fill="#E4351F"/>
<path d="M1254.69 212.433C1246.95 208.218 1239.31 206.113 1231.74 206.113C1223.02 206.113 1215.08 208.306 1207.92 212.687C1200.76 217.064 1195.13 223.101 1191.02 230.794C1186.9 238.479 1184.85 247.041 1184.85 256.469C1184.85 265.889 1186.9 274.451 1191.02 282.144C1195.13 289.829 1200.76 295.866 1207.92 300.251C1215.08 304.628 1223.02 306.825 1231.74 306.825C1238.81 306.825 1246.21 305.003 1253.95 301.362C1261.68 297.726 1268.59 292.762 1274.68 286.48L1301.09 315.005C1291.72 324.932 1280.56 332.829 1267.65 338.7C1254.73 344.562 1241.94 347.503 1229.28 347.503C1212.17 347.503 1196.7 343.534 1182.88 335.596C1169.06 327.657 1158.2 316.823 1150.3 303.093C1142.4 289.371 1138.45 273.985 1138.45 256.956C1138.45 240.085 1142.48 224.873 1150.55 211.31C1158.6 197.746 1169.67 187.087 1183.74 179.306C1197.81 171.534 1213.56 167.652 1231 167.652C1243.83 167.652 1256.5 170.336 1269 175.707C1281.51 181.091 1292.12 188.406 1300.84 197.667L1274.68 229.417C1269.09 222.323 1262.42 216.656 1254.69 212.433Z" fill="#E4351F"/>
<path d="M326.533 79.2151C324.762 85.0899 315.014 104.175 321.753 125.09C339.713 180.855 333.963 231.523 297.311 277.086C248.838 337.356 171.216 351.964 104.137 312.447C92.5599 305.628 72.0877 311.91 63.354 315.688C129.299 375.018 240.808 378.909 311.703 302.004C381.762 226.002 364.241 123.663 326.533 79.2151Z" fill="#14478A"/>
<path d="M64.0124 81.0787C104.357 33.1109 171.365 12.3869 228.796 35.5907C258.188 47.4651 286.206 38.4157 287.779 37.8291C235.253 -8.60342 124.477 -22.97 49.513 57.0303C-23.1787 134.605 -5.08236 244.395 43.7347 294.527C50.4609 280.888 57.3194 270.079 47.1413 252.821C15.3361 198.874 23.4364 129.325 64.0124 81.0787Z" fill="#1A7934"/>
<path d="M172.951 93.1943C191.068 92.1874 198.506 77.8291 212.653 69.8074C169.701 54.7127 118.438 72.0209 89.0625 109.113C60.8211 144.773 59.6166 197.971 75.0846 223.289C85.387 202.839 102.747 194.518 122.722 194.281C129.324 167.045 107.784 156.053 93.7439 140.317C113.881 112.225 139.548 95.0458 172.951 93.1943Z" fill="#1A7934"/>
<path d="M259.81 263.634C286.525 238.5 303.863 190.037 290.784 156.669C281.553 168.772 271.355 178.212 270.183 195.974C268.114 227.308 249.98 250.89 223.241 269.326C208.079 251.76 192.599 234.414 165.521 239.765C164.916 260.01 154.974 275.696 135.131 285.128C170.198 305.827 226.143 295.313 259.81 263.634Z" fill="#14478A"/>
<path d="M66.0527 295.005C86.14 286.285 106.414 277.972 126.236 268.681C137.275 263.509 142.093 252.346 140.251 240.68C138.67 230.665 130.607 222.248 120.433 219.985C109.046 217.451 96.223 222.248 90.9538 233.058C81.3469 252.754 72.8906 273.016 63.9501 293.041C64.6496 293.699 65.3532 294.352 66.0527 295.005Z" fill="#F7B612"/>
<path d="M297.088 67.4108C300.329 71.2719 300.478 79.7762 298.889 85.3889C290.337 115.216 274.103 140.642 253.043 163.292C249.562 167.033 247.282 173.486 247.344 178.645C247.646 201.146 240.895 219.906 224.959 235.408C222.496 233.178 220.158 231.576 218.448 229.467C210.377 219.452 201.225 215.229 187.334 215.833C162.04 216.948 143.799 193.303 146.858 167.965C147.367 163.683 145.119 158.042 142.267 154.542C137.946 149.234 132.006 145.252 126.067 140.126C143.65 123.538 162.371 116.24 183.708 117.355C191.569 117.779 196.548 115.516 201.95 110.386C224.334 89.0918 250.407 73.8307 280.171 65.6592C285.507 64.1864 294.385 64.2155 297.088 67.4108ZM247.008 135.666C247.037 125.26 238.966 117.089 228.614 117.089C218.44 117.055 209.802 125.472 209.74 135.454C209.678 145.318 218.382 154.002 228.403 154.093C238.668 154.185 246.979 145.951 247.008 135.666Z" fill="#E4351F"/>
<mask id="mask0_16_25" style="mask-type:luminance" maskUnits="userSpaceOnUse" x="271" y="47" width="47" height="47">
<path d="M300.963 53.9718C288.719 60.1295 274.066 66.1 271.84 68.3384C271.032 74.3006 279.356 73.5891 279.356 73.5891C276.389 78.2199 281.306 83.6245 281.306 83.6245C281.306 83.6245 286.687 88.5715 291.289 85.5842C291.289 85.5842 290.578 93.9512 296.513 93.1399C298.74 90.9014 304.68 76.1729 310.806 63.8657C314.953 55.5362 313.032 55.9356 317.279 47.4646C308.848 51.7334 309.245 49.8029 300.963 53.9718Z" fill="white"/>
</mask>
<g mask="url(#mask0_16_25)">
<path d="M294.153 24.2236L340.396 70.706L294.153 117.193L247.911 70.706L294.153 24.2236Z" fill="url(#paint0_linear_16_25)"/>
</g>
<mask id="mask1_16_25" style="mask-type:luminance" maskUnits="userSpaceOnUse" x="271" y="47" width="47" height="27">
<path d="M300.963 53.9725C288.719 60.1302 274.066 66.1007 271.84 68.3391C271.032 74.3013 279.356 73.5898 279.356 73.5898C280.648 73.594 303.728 55.9405 303.728 55.9405C303.728 55.9405 313.032 55.9405 317.279 47.4695C308.848 51.7341 309.245 49.8036 300.963 53.9725Z" fill="white"/>
</mask>
<g mask="url(#mask1_16_25)">
<path d="M307.681 28.6133L328.103 68.73L280.627 93.1486L260.205 53.0319L307.681 28.6133Z" fill="url(#paint1_linear_16_25)"/>
</g>
<mask id="mask2_16_25" style="mask-type:luminance" maskUnits="userSpaceOnUse" x="291" y="47" width="27" height="47">
<path d="M308.847 61.0865C293.379 80.2919 291.289 85.5842 291.289 85.5842C291.289 85.5842 290.577 93.9512 296.513 93.1399C298.74 90.9014 304.679 76.1729 310.805 63.8657C314.953 55.5362 313.032 55.9356 317.279 47.4646C308.847 51.7334 314.514 53.718 308.847 61.0865Z" fill="white"/>
</mask>
<g mask="url(#mask2_16_25)">
<path d="M308.408 106.587L268.801 78.5155L299.443 34.8248L339.054 62.9007L308.408 106.587Z" fill="url(#paint2_linear_16_25)"/>
</g>
<path d="M317.274 47.4647C315.25 45.4302 300.962 53.9719 300.962 53.9719C301.165 56.3435 303.727 55.9358 303.727 55.9358C302.713 57.6291 303.748 59.6137 304.468 60.3419C305.188 61.0658 307.162 62.1059 308.851 61.0866C308.851 61.0866 308.446 63.662 310.805 63.8659C310.805 63.8617 319.298 49.4993 317.274 47.4647Z" fill="#E4351F"/>
</g>
<defs>
<linearGradient id="paint0_linear_16_25" x1="281.81" y1="58.3114" x2="306.61" y2="82.9834" gradientUnits="userSpaceOnUse">
<stop stop-color="#EFBF8E"/>
<stop offset="0.3913" stop-color="#EEBD8D"/>
<stop offset="0.5908" stop-color="#EAB688"/>
<stop offset="0.7469" stop-color="#E4AA81"/>
<stop offset="0.8797" stop-color="#DB9976"/>
<stop offset="0.9979" stop-color="#D18269"/>
<stop offset="1" stop-color="#D18269"/>
</linearGradient>
<linearGradient id="paint1_linear_16_25" x1="289.379" y1="51.4846" x2="297.743" y2="67.7439" gradientUnits="userSpaceOnUse">
<stop stop-color="#EFBF8E"/>
<stop offset="0.1016" stop-color="#EAB688"/>
<stop offset="0.4701" stop-color="#DC9A77"/>
<stop offset="0.7826" stop-color="#D4886C"/>
<stop offset="1" stop-color="#D18269"/>
</linearGradient>
<linearGradient id="paint2_linear_16_25" x1="309.071" y1="74.3582" x2="302.861" y2="70.0019" gradientUnits="userSpaceOnUse">
<stop stop-color="#EFBF8E"/>
<stop offset="1" stop-color="#FCD3B4"/>
</linearGradient>
<clipPath id="clip0_16_25">
<rect width="1302" height="360" fill="white"/>
</clipPath>
</defs>
</svg>
