<svg width="176" height="260" viewBox="0 0 176 260" fill="none" xmlns="http://www.w3.org/2000/svg">
<path d="M99.1094 62.2279C119.391 52.2818 139.581 44.7541 159.495 43.2485C159.633 39.7809 159.816 36.3593 159.954 32.9375C139.994 35.0362 119.85 41.7429 99.6141 51.0044C99.4306 54.7457 99.2929 58.4867 99.1094 62.2279Z" fill="white"/>
<path d="M159.732 51.0547C141.103 52.1039 122.198 58.9018 103.247 68.0724C103.063 71.7679 102.926 75.5089 102.742 79.2501C121.739 69.6235 140.644 62.2782 159.273 61.6394C159.411 58.0808 159.595 54.5677 159.732 51.0547Z" fill="white"/>
<path d="M93.375 103.151C117.006 90.1023 140.5 78.8333 163.488 80.3844L163.993 69.4803C141.004 68.4766 117.511 79.0158 93.9255 91.7449C93.742 95.5316 93.6042 99.3638 93.4207 103.151H93.375Z" fill="white"/>
<path d="M165.549 107.902C165.365 111.643 165.228 115.43 165.044 119.217C114.845 111.917 61.4335 176.839 11.2344 169.54L13.391 158.59C63.0855 164.339 115.9 100.192 165.549 107.902Z" fill="white"/>
<path d="M175.055 129.887C174.871 133.719 174.733 137.506 174.55 141.338C146.238 130.48 116.596 148.455 87.0455 164.15C57.6327 180.255 28.3575 194.125 0 187.099L2.15664 176.195C58.321 192.939 118.982 110.223 175.055 129.887Z" fill="white"/>
<path d="M169.643 148.548C169.459 152.38 169.276 156.258 169.138 160.09C141.928 153.247 113.662 170.447 85.534 184.408C57.4517 199.007 29.5532 210.413 2.29688 207.22L4.45353 196.27C31.1132 200.285 58.553 187.83 86.0387 172.956C114.213 158.265 142.478 141.065 169.643 148.502V148.548Z" fill="white"/>
<path d="M68.7777 237.422L68.3189 248.098C52.1669 253.071 36.1069 256.31 20.0469 259.733L22.02 249.785C37.5752 246.912 53.1307 243.034 68.8237 237.422H68.7777Z" fill="white"/>
<path d="M162.391 178.753C136.373 176.472 109.53 192.577 82.8705 204.577C55.5683 217.67 28.4958 226.384 1.83594 226.248L3.99258 215.207C30.0558 216.803 56.6238 206.766 83.3753 193.171C110.081 180.259 136.924 163.834 162.941 166.937L162.391 178.753Z" fill="white"/>
<path d="M126.143 205.945C109.394 211.876 92.5541 220.271 75.7601 226.749C54.5149 235.327 33.4074 240.847 12.4375 243.813L14.5024 233.41C34.9216 231.266 55.5244 224.879 76.2649 215.663C93.0589 208.454 109.945 199.421 126.693 193.398L126.143 205.991V205.945Z" fill="white"/>
<path d="M152.611 16.3828L152.152 26.2374C136.964 28.7468 121.684 33.583 106.312 39.879L106.817 29.0207C122.143 23.3632 137.423 19.1202 152.611 16.3828Z" fill="white"/>
<path d="M127.287 5.33797C134.537 3.4674 141.833 1.77932 149.083 0C149.083 3.14803 149.037 6.38732 148.991 9.6266C141.603 11.2234 134.216 13.0027 126.828 15.1014L127.287 5.33797Z" fill="white"/>
<path d="M160.051 98.9981C130.638 97.538 100.169 119.072 69.9766 134.812L70.4813 123.27C100.674 107.53 131.097 86.6796 160.555 87.9115C160.372 91.5613 160.234 95.2568 160.051 98.9981Z" fill="white"/>
</svg>
